# xmcd
#
# Track frame offsets:
#	222
#	11407
#	23645
#	36025
#	53000
#	62405
#	74922
#	88182
#	101165
#	112777
#	129405
#	154035
#	167575
#	178865
#	193862
#
# Disc length: 2908
#
# Revision: 6
# Processed by: cddbd v1.5.1PL0 Copyright (c) Steve Scherf et al.
# Submitted via: audiograbber 1.83.01
# Normalized: r4:TSWAP
#
DISCID=c20b5a0f
DTITLE=Rhino Records promo - Blues Masters
DYEAR=1992
DGENRE=Blues
TTITLE0=Paul Butterfield Blues Band - Shake Your Money Maker
TTITLE1=Little Walter - Juke
TTITLE2=Muddy Watters - You Need Love
TTITLE3=T-Bone Walker - T-Bone Blues
TTITLE4=Albert Collins - The Freeze
TTITLE5=Jimmy Reed - Bright Lights Big City
TTITLE6=Mississippi John Hurt - Candy Man
TTITLE7=Memphis Minnie - Bumble Bee
TTITLE8=Albert King - Crosscut Saw
TTITLE9=Stevie Ray Vaughan - Pride and Joy
TTITLE10=Count Basie - Every Day I Have the Blues
TTITLE11=Big Joe Turner - Shake, Rattle and Roll
TTITLE12=Ruth Brown - Wild Wild Young Men
TTITLE13=Bessie Smith - Backwater Blues
TTITLE14=Texas Prison Work Song - Go Down Old Hannah
EXTD=
EXTT0=
EXTT1=
EXTT2=
EXTT3=
EXTT4=
EXTT5=
EXTT6=
EXTT7=
EXTT8=
EXTT9=
EXTT10=
EXTT11=
EXTT12=
EXTT13=
EXTT14=
PLAYORDER=
